<svg xmlns="http://www.w3.org/2000/svg" width="1000" height="484" viewBox="0 0 1000 484" version="1.1"><path d="M 349.218 10.936 C 345.213 11.920, 340.038 13.551, 337.718 14.561 C 333.233 16.514, 67.196 169.634, 65.500 171.239 C 64.950 171.760, 66.300 171.440, 68.500 170.528 C 86.453 163.089, 110.293 163.394, 128.114 171.292 C 131.076 172.604, 160.145 189.072, 192.712 207.887 L 251.924 242.096 330.212 196.918 C 373.270 172.070, 410.578 150.229, 413.117 148.382 C 419.569 143.691, 429.864 132.431, 433.865 125.691 C 441.890 112.174, 445.996 92.897, 444.119 77.554 C 441.872 59.182, 434.592 44.320, 421.560 31.500 C 409.976 20.103, 398.169 13.627, 383.186 10.452 C 374.005 8.506, 358.192 8.731, 349.218 10.936" stroke="none" fill="#ea4335" fill-rule="evenodd"/><path d="M 671.649 287.493 C 628.309 312.515, 590.175 335.087, 586.908 337.653 C 574.797 347.168, 564.182 363.893, 560.348 379.500 C 557.774 389.979, 558.013 407.278, 560.874 417.500 C 567.037 439.522, 581.510 457.159, 601.431 466.924 C 611.957 472.084, 619.261 473.965, 631.541 474.681 C 643.275 475.365, 654.680 473.464, 665 469.106 C 670.374 466.837, 936.424 313.953, 938 312.228 C 938.275 311.927, 937.600 312.044, 936.500 312.486 C 925.847 316.774, 918.057 318.267, 906 318.328 C 891.809 318.400, 884.698 316.935, 873.500 311.631 C 869.650 309.807, 840.671 293.394, 809.103 275.158 C 777.534 256.921, 751.423 242, 751.077 242 C 750.732 242, 714.989 262.472, 671.649 287.493" stroke="none" fill="#fbbc04" fill-rule="evenodd"/><path d="M 80 167.019 C 56.207 172.963, 38.860 186.428, 28.505 206.991 C 12.909 237.960, 19.623 274.772, 45.194 298.500 C 52.058 304.868, 65.304 312.751, 192.025 385.877 C 268.632 430.084, 333.604 467.302, 336.406 468.584 C 346.268 473.097, 353.611 474.478, 367.500 474.430 C 382.648 474.379, 389.414 472.888, 401.583 466.919 C 421.205 457.295, 436.428 438.668, 442.145 417.287 C 444.904 406.968, 445.108 389.453, 442.585 379.500 C 438.640 363.939, 428.212 347.435, 416.279 337.865 C 411.022 333.649, 381.171 316.282, 192.749 207.818 C 159.612 188.743, 130.250 172.172, 127.500 170.994 C 113.497 164.998, 94.464 163.405, 80 167.019" stroke="none" fill="#4285f4" fill-rule="evenodd"/><path d="M 621.075 10.087 C 594.424 15.316, 571.186 35.461, 562.564 60.811 C 553.278 88.113, 559.457 117.563, 578.779 138.103 C 582.934 142.520, 588.170 147.394, 590.416 148.935 C 594.568 151.785, 745.179 238.886, 752.500 242.671 C 754.700 243.809, 781.250 259.044, 811.500 276.527 C 841.750 294.010, 869.650 309.806, 873.500 311.630 C 884.438 316.812, 891.849 318.375, 905.500 318.380 C 919.590 318.384, 928.551 316.283, 941.910 309.842 C 957.366 302.391, 972.456 284.769, 978.436 267.189 C 987.747 239.812, 981.596 210.493, 962.221 189.897 C 958.066 185.480, 952.818 180.595, 950.558 179.040 C 942.821 173.716, 675.513 19.707, 667.500 15.956 C 663.100 13.896, 656.261 11.489, 652.303 10.606 C 644.591 8.885, 628.558 8.619, 621.075 10.087" stroke="none" fill="#0c9c5b" fill-rule="evenodd"/></svg>